<?xml version="1.0" encoding="UTF-8" standalone="no"?>
<!-- Creator: CorelDRAW -->
<svg xmlns:dc="http://purl.org/dc/elements/1.1/" xmlns:cc="http://web.resource.org/cc/" xmlns:rdf="http://www.w3.org/1999/02/22-rdf-syntax-ns#" xmlns:svg="http://www.w3.org/2000/svg" xmlns="http://www.w3.org/2000/svg" xmlns:sodipodi="http://inkscape.sourceforge.net/DTD/sodipodi-0.dtd" xmlns:inkscape="http://www.inkscape.org/namespaces/inkscape" xml:space="preserve" width="580" height="530" style="shape-rendering:geometricPrecision; text-rendering:geometricPrecision; image-rendering:optimizeQuality; fill-rule:evenodd" viewBox="0 0 8268 11692" id="svg2" sodipodi:version="0.32" inkscape:version="0.43" sodipodi:docname="Africa just continent.svg" sodipodi:docbase="d:\Home\Wikipedia\Projectos\Mapas\Ãfrica" version="1.0"><metadata id="metadata284"><rdf:RDF><cc:Work rdf:about=""><dc:format>image/svg+xml</dc:format><dc:type rdf:resource="http://purl.org/dc/dcmitype/StillImage"/></cc:Work></rdf:RDF></metadata><sodipodi:namedview inkscape:window-height="682" inkscape:window-width="1024" inkscape:pageshadow="2" inkscape:pageopacity="0.0" borderopacity="1.0" bordercolor="#666666" pagecolor="#ffffff" id="base" inkscape:zoom="1.0339623" inkscape:cx="290" inkscape:cy="265" inkscape:window-x="-4" inkscape:window-y="-4" inkscape:current-layer="svg2" fill="#f5f5f5"/>
 <defs id="defs4">
  <style type="text/css" id="style6">
   
    .str3 {stroke:#595959;stroke-width:8;stroke-linejoin:round}
    .str1 {stroke:#000000;stroke-width:14}
    .str2 {stroke:#000000;stroke-width:14}
    .str0 {stroke:#000000;stroke-width:14;stroke-linejoin:round}
    .str7 {stroke:#990099;stroke-width:14}
    .str5 {stroke:#99FF99;stroke-width:14}
    .str6 {stroke:#000000;stroke-width:21;stroke-linejoin:round}
    .str4 {stroke:#3300CC;stroke-width:21;stroke-linejoin:round}
    .str8 {stroke:#FF9999;stroke-width:21;stroke-linejoin:round}
    .fil7 {fill:none}
    .fil8 {fill:#00FF00}
    .fil0 {fill:#336699}
    .fil3 {fill:#990000}
    .fil9 {fill:#9966FF}
    .fil5 {fill:#99FFFF}
    .fil4 {fill:#CC3300}
    .fil10 {fill:#FF6600}
    .fil1 {fill:#FF9933}
    .fil2 {fill:#FFFF99}
    .fil6 {fill:#FFFFFF}
   
  </style>
 
  
  
  
  
  
  
  
  
  
  
  
  
  
  
  
  
  
  
  
  
  
  
  
  
  
  
  
  
  
  
  
  
  
  
  
  
  
  
  
  
  
  
  
  
  
  
  
  
  
  
  
  
  
  
  
  
  
  
  
  
  
  
  
  
  
  
  
  
  
  
  
  
  
  
  
  
  
  
  
  
  
  
  
  
  
  
  
  
  
  
  
  
  
  
  
  
  
  
  
  
  
  
  
  
  
  
  
  
  
  
  
  
  
  
  
  
  
  
  
  
  
  
  
  
  
  
  
  
  
  
  
  
  
  
  
  
  
 </defs>
 <path style="fill:#ffd700;stroke:#000000;stroke-width:2.99999964;stroke-linejoin:round;stroke-miterlimit:4;stroke-dasharray:none" d="M 252.25,19.90625 C 252.2371,19.909449 252.20056,19.934508 252.1875,19.9375 C 252.1809,19.938777 252.16295,19.936554 252.15625,19.9375 C 251.51064,20.0286 250.76769,20.399894 249.90625,21.1875 C 248.73609,22.087624 247.56893,22.472487 246.21875,22.5625 C 241.4715,22.948246 235.83173,19.494909 230.5625,21.90625 C 230.5625,21.906252 228.40655,23.260169 226.15625,22 C 218.59523,19.0296 210.03112,22.192283 201.75,23.8125 C 196.97936,25.522732 191.84435,27.414771 187.34375,29.125 C 187.20926,29.164226 186.08145,29.490637 184.5625,29.40625 C 184.02243,29.316238 183.4076,29.211275 182.6875,29.03125 C 177.37678,27.861093 171.05055,28.774383 167,24.09375 C 161.68926,23.823712 160.88309,31.63591 156.5625,34.15625 C 148.37138,38.026773 140.08928,41.631263 136.21875,50.8125 C 136.21877,51.172544 136.215,51.44871 136.125,51.71875 C 135.49493,58.559665 130.8321,65.759565 124.53125,69 C 120.12066,70.170159 115.80429,71.163421 111.84375,73.59375 C 109.50343,74.943937 107.32776,76.928378 105.4375,79.71875 C 103.63726,80.168819 102.39639,81.048586 101.40625,82.21875 C 98.255827,85.999263 98.340617,92.39608 93.75,93.65625 C 86.819067,99.146994 83.833148,107.16656 79.0625,114.1875 C 79.062498,114.1875 78.895037,114.45245 78.625,114.8125 L 78.90625,115.625 L 78.1875,115.625 C 77.91746,116.52512 77.903554,117.69737 79.34375,118.6875 C 80.69393,120.66777 81.67255,123.26599 81.3125,125.15625 C 76.81189,129.20679 81.412684,133.25447 80.0625,137.125 C 79.522425,139.01525 79.067585,141.09344 78.4375,143.34375 C 77.897423,145.77408 77.181374,148.38591 76.28125,150.90625 L 76.375,151 L 76.8125,151.1875 L 76.28125,151 C 75.021076,154.42046 73.395341,157.84583 70.875,160.90625 C 70.755294,161.01854 69.779653,161.95498 69.59375,162.8125 C 69.587496,162.84415 69.568364,162.8985 69.5625,162.9375 C 69.558636,162.96634 69.563657,163.00791 69.5625,163.03125 C 69.561624,163.06448 69.561619,163.11659 69.5625,163.15625 C 69.562825,163.16236 69.56196,163.18207 69.5625,163.1875 C 69.569113,163.22195 69.586556,163.28292 69.59375,163.3125 C 69.601817,163.3419 69.614257,163.40391 69.625,163.4375 C 69.632223,163.45371 69.647924,163.48405 69.65625,163.5 C 69.751258,163.66691 69.915749,163.84217 70.15625,163.96875 C 71.506427,166.48909 71.680022,168.90595 71.5,171.15625 C 71.49584,171.15655 71.472837,171.15632 71.46875,171.15625 C 71.466744,171.15611 71.44432,171.15617 71.4375,171.15625 C 71.433764,171.15615 71.409879,171.15602 71.40625,171.15625 C 71.316234,172.32643 71.152515,173.41985 71.0625,174.5 C 70.612435,176.93035 70.252394,179.27348 71.0625,181.34375 C 71.782593,183.41405 73.566981,185.28978 77.4375,187 C 78.427632,188.3502 79.70858,189.25986 80.96875,190.25 C 81.868869,190.8801 82.748652,191.59989 83.46875,192.5 C 84.548893,193.94018 85.478617,195.46232 86.46875,196.8125 C 87.188847,197.80261 88.154905,199.60735 88.875,200.6875 C 89.86513,202.03766 89.88113,203.65356 90.78125,205.09375 C 90.78125,205.35533 90.692781,205.54428 90.6875,205.71875 C 89.877392,210.75942 92.212016,215.54081 95.8125,218.78125 C 97.342708,219.77139 98.778557,220.85735 100.21875,221.9375 C 107.95979,227.8783 114.99266,235.52182 123.09375,240.5625 C 123.90386,240.92255 124.62739,241 125.4375,241 C 126.92833,240.97018 128.47908,240.41406 130.0625,239.6875 C 130.06955,239.68744 130.09216,239.68725 130.09375,239.6875 C 130.09662,239.6875 130.12144,239.68757 130.125,239.6875 C 133.30007,238.2207 136.53167,236.02035 139.28125,235.78125 C 142.61172,234.07102 148.01061,237.95141 152.78125,236.78125 C 152.78127,236.78125 154.59711,236.02975 155.6875,237 C 155.70355,237.01587 155.73734,237.04984 155.75,237.0625 C 156.07402,237.22452 156.34679,237.29006 156.65625,237.4375 C 156.65605,237.42889 156.65625,237.4175 156.65625,237.40625 C 165.47742,241.18676 175.10885,234.16164 183.75,231.28125 C 185.10018,230.83119 186.45858,230.49252 187.71875,230.3125 C 187.72438,230.3125 187.74421,230.31268 187.75,230.3125 C 187.91622,230.30289 188.14627,230.22836 188.3125,230.21875 C 188.31829,230.21857 188.33812,230.21875 188.34375,230.21875 C 190.77408,230.30876 193.19467,230.02377 195.625,229.84375 C 200.1256,229.4837 204.62439,229.31832 209.125,232.46875 C 214.25569,235.7992 212.57551,242.89474 218.15625,244.875 C 224.27707,247.75539 230.30681,241.91103 235.4375,243.53125 C 236.42763,243.80129 237.31863,244.34987 238.21875,245.25 C 240.46905,249.57058 245.58388,250.82177 244.59375,256.3125 C 244.2337,257.75269 243.8913,259.2823 243.53125,260.8125 C 243.26122,262.34272 242.89502,263.87977 242.625,265.5 C 242.44497,266.31012 242.36752,267.03364 242.1875,267.84375 C 241.64744,270.90415 240.99761,274.0296 240.1875,277 C 232.89652,282.49075 242.70349,287.91043 244.59375,294.03125 C 248.28424,296.37156 250.99595,299.06085 253.15625,302.03125 C 254.95649,304.55161 256.39235,307.17088 257.5625,309.78125 C 258.28258,311.40147 258.99492,313.00478 259.625,314.625 C 259.98503,315.70516 260.45245,316.69737 260.8125,317.6875 C 261.62259,319.57777 262.34987,321.48101 263.25,323.28125 C 263.33999,323.46129 263.41,323.63248 263.5,323.8125 C 263.68,324.17257 263.88249,324.54621 264.0625,324.90625 C 264.06248,324.90627 264.06251,325 264.0625,325 C 264.15249,325.18004 264.22249,325.25746 264.3125,325.4375 C 264.31244,325.44099 264.31253,325.46207 264.3125,325.46875 C 264.31823,325.47444 264.33793,325.49431 264.34375,325.5 C 264.34772,325.50364 264.36641,325.52311 264.375,325.53125 C 264.38221,325.53116 264.40501,325.53108 264.40625,325.53125 C 264.48217,325.68316 264.57186,325.77437 264.59375,325.90625 C 264.5936,325.9128 264.5935,325.93492 264.59375,325.9375 C 264.59407,325.94282 264.59358,325.96329 264.59375,325.96875 C 264.60498,325.96877 264.61639,325.96857 264.625,325.96875 C 264.63075,325.97444 264.65097,325.9941 264.65625,326 C 264.65916,325.99992 264.68371,326.00025 264.6875,326 C 264.68738,326.00709 264.68732,326.02967 264.6875,326.03125 C 264.68766,326.03988 264.6875,326.05125 264.6875,326.0625 C 264.77749,326.24254 264.84748,326.44498 264.9375,326.625 C 264.95209,326.64988 264.98539,326.69678 265,326.71875 C 265.05483,326.8079 265.12863,326.89993 265.1875,327 C 265.19556,327.01585 265.21242,327.04984 265.21875,327.0625 C 265.21997,327.06268 265.24278,327.0626 265.25,327.0625 C 265.25858,327.07065 265.27726,327.09013 265.28125,327.09375 C 265.28415,327.09661 265.30875,327.12144 265.3125,327.125 C 265.31247,327.13168 265.31256,327.15276 265.3125,327.15625 C 265.40249,327.33629 265.4725,327.41372 265.5625,327.59375 C 265.56248,327.59377 265.65624,327.68751 265.65625,327.6875 C 265.66186,327.69315 265.68187,327.71246 265.6875,327.71875 C 265.6985,327.72935 265.73898,327.77022 265.75,327.78125 C 265.80027,327.85315 265.85551,327.96313 265.90625,328.03125 C 265.90819,328.03367 265.93066,328.05584 265.9375,328.0625 C 265.93748,328.07377 265.93732,328.08496 265.9375,328.09375 C 265.93766,328.09552 265.93761,328.11803 265.9375,328.125 C 265.94299,328.13051 265.96289,328.15075 265.96875,328.15625 C 265.98159,328.1695 266.01015,328.19765 266.03125,328.21875 C 266.03512,328.22314 266.05861,328.24516 266.0625,328.25 C 266.11323,328.31814 266.16847,328.42812 266.21875,328.5 C 266.22562,328.50677 266.24798,328.52913 266.25,328.53125 C 266.25434,328.53553 266.2768,328.55831 266.28125,328.5625 C 266.28529,328.56622 266.3064,328.58757 266.3125,328.59375 C 266.31248,328.68378 266.31251,328.6875 266.3125,328.6875 C 266.32515,328.70017 266.35925,328.73399 266.375,328.75 C 266.40358,328.78403 266.44547,328.84209 266.46875,328.875 C 266.51321,328.93975 266.55788,329.01397 266.59375,329.0625 C 266.60478,329.07367 266.64529,329.11446 266.65625,329.125 C 268.09642,332.63549 266.92627,335.61825 266.65625,339.21875 C 266.83625,344.52949 271.97756,347.66925 271.4375,353.25 C 271.34746,353.61006 271.34,353.88623 271.25,354.15625 C 271.15997,354.51632 271.05877,354.79245 270.96875,355.0625 C 270.69869,355.96265 270.36004,356.75239 270,357.5625 C 269.90996,357.74254 269.80876,357.94498 269.71875,358.125 C 269.71311,358.13064 269.69281,358.15125 269.6875,358.15625 C 269.68465,358.15901 269.65969,358.1843 269.65625,358.1875 C 269.64102,358.21672 269.60897,358.28329 269.59375,358.3125 C 269.58559,358.32086 269.5664,358.33997 269.5625,358.34375 C 269.55668,358.34892 269.53688,358.36937 269.53125,358.375 C 269.53123,358.46503 269.53125,358.46876 269.53125,358.46875 C 269.44122,358.55879 269.43749,358.5625 269.4375,358.5625 C 269.43748,358.65253 269.43749,358.65626 269.4375,358.65625 C 269.4339,358.65618 269.40911,358.65626 269.40625,358.65625 C 269.39768,358.66479 269.37698,358.68585 269.375,358.6875 C 269.37523,358.69099 269.37491,358.71589 269.375,358.71875 C 269.36913,358.72444 269.34957,358.74428 269.34375,358.75 C 269.34373,358.75002 269.34375,358.75375 269.34375,358.84375 C 269.34017,358.84364 269.31535,358.84376 269.3125,358.84375 C 269.30405,358.8518 269.28487,358.87101 269.28125,358.875 C 269.28141,358.8823 269.28156,358.90517 269.28125,358.90625 C 269.28106,358.90891 269.28125,358.93469 269.28125,358.9375 C 269.27742,358.9411 269.25292,358.96589 269.25,358.96875 C 269.25008,358.97161 269.24975,358.99643 269.25,359 C 269.24645,358.99973 269.22162,359.00009 269.21875,359 C 269.21149,358.99987 269.18866,358.99976 269.1875,359 C 269.18748,359.00002 269.1875,359.09375 269.1875,359.09375 C 269.18755,359.09725 269.18747,359.11833 269.1875,359.125 C 269.1837,359.12858 269.15917,359.1534 269.15625,359.15625 C 269.14993,359.16255 269.12933,359.18343 269.125,359.1875 C 269.11778,359.18741 269.09499,359.18733 269.09375,359.1875 C 269.09373,359.18752 269.09376,359.28125 269.09375,359.28125 C 269.00372,359.37128 268.99999,359.37501 269,359.375 C 268.99981,359.37766 269.00033,359.40378 269,359.40625 C 268.9943,359.41197 268.97454,359.43193 268.96875,359.4375 C 268.96323,359.44337 268.94301,359.46325 268.9375,359.46875 C 268.93082,359.46872 268.90974,359.46881 268.90625,359.46875 C 268.90623,359.55878 268.90626,359.56624 268.90625,359.65625 C 266.74594,363.25675 263.85392,366.59075 262.59375,370.28125 C 264.12394,377.03218 258.72998,381.87917 259,388 C 258.63993,390.16027 258.63621,392.24222 258.90625,394.3125 C 260.70647,406.55413 272.85434,416.7084 277.625,428.5 C 276.9949,441.19168 282.30949,453.07219 286,464.59375 C 288.25028,466.12394 290.05981,467.92601 291.5,469.90625 C 296.54067,476.65719 298.51809,485.67031 303.46875,492.78125 C 304.27885,495.30159 300.66986,496.83225 301.75,498.8125 C 306.61066,502.14296 308.34523,511.85152 315.90625,509.78125 C 321.30699,509.6012 325.33806,505.9901 330.46875,505 C 336.22953,504.90997 346.9342,504.64536 352.875,502.125 C 368.08704,499.78471 378.45737,483.14656 388.71875,471.625 C 390.78904,467.21439 394.2198,463.7968 395.75,459.65625 C 396.47012,457.40596 396.71636,454.97044 395.90625,452 C 394.46607,450.3798 397.09375,448.65625 397.09375,448.65625 C 403.66465,445.23578 415.09271,443.99374 413.5625,434.8125 C 417.61307,429.14171 411.58866,424.09331 412.21875,418.0625 C 409.96846,416.98235 409.70111,414.17898 410.78125,412.46875 C 421.49272,404.99771 428.49953,392.68137 441.28125,391.78125 C 447.04203,386.56051 453.15013,380.97205 452.25,375.03125 C 452.61006,372.24091 450.45619,369.54651 450.90625,367.65625 C 451.26631,360.63533 451.63382,355.85722 451.09375,348.65625 C 450.91374,348.29622 450.74252,347.86005 450.5625,347.5 C 449.93244,346.41988 449.1875,345.59376 449.1875,345.59375 C 444.50689,341.99329 446.94529,336.69184 444.875,332.28125 C 445.59512,329.5809 444.5112,327.0516 444.78125,324.53125 C 444.9613,323.18109 444.24999,321.03126 444.25,321.03125 C 442.17974,317.97086 441.90864,315.10287 442.71875,312.3125 C 442.71876,312.26328 442.71916,312.20109 442.71875,312.15625 C 442.71914,312.13892 442.71666,312.1096 442.71875,312.09375 C 442.73095,312.02158 442.7675,311.93377 442.8125,311.84375 C 442.81252,311.84377 442.81251,311.84001 442.8125,311.75 C 442.81582,311.74684 442.8409,311.72162 442.84375,311.71875 C 442.84927,311.7136 442.86949,311.69301 442.875,311.6875 C 442.87469,311.68422 442.87509,311.65904 442.875,311.65625 C 442.8808,311.65076 442.90056,311.63055 442.90625,311.625 C 442.90614,311.6218 442.90632,311.59651 442.90625,311.59375 C 442.90627,311.59377 442.90625,311.50001 442.90625,311.5 C 442.90627,311.50002 442.90625,311.40624 442.90625,311.40625 C 442.9075,311.4061 442.93029,311.40615 442.9375,311.40625 C 442.94322,311.40057 442.96318,311.38079 442.96875,311.375 C 442.96856,311.37145 442.96882,311.3466 442.96875,311.34375 C 442.97572,311.3437 442.9981,311.34358 443,311.34375 C 443.00029,311.34255 443.00011,311.31975 443,311.3125 C 443.00002,311.22251 443.00001,311.21875 443,311.21875 C 443.00002,311.21877 443.00001,311.21502 443,311.125 C 443.00002,311.12502 443.09375,311.12501 443.09375,311.125 C 443.09377,311.035 443.09375,310.93751 443.09375,310.9375 C 443.09377,310.93752 443.15626,310.84374 443.15625,310.84375 C 443.15627,310.84377 443.15626,310.78125 443.15625,310.78125 C 443.16209,310.77558 443.18163,310.75569 443.1875,310.75 C 443.18708,310.73909 443.18749,310.69855 443.1875,310.6875 C 443.18719,310.68446 443.18757,310.65906 443.1875,310.65625 C 443.19298,310.64528 443.21319,310.60426 443.21875,310.59375 C 443.21854,310.5905 443.2188,310.56531 443.21875,310.5625 C 443.22595,310.54127 443.24419,310.49191 443.25,310.46875 C 443.25,310.46601 443.25007,310.44056 443.25,310.4375 C 443.25019,310.43207 443.25,310.41188 443.25,310.40625 C 443.2669,310.40627 443.30136,310.40684 443.3125,310.40625 C 443.31385,310.40599 443.33655,310.40608 443.34375,310.40625 C 443.34364,310.4026 443.3438,310.37789 443.34375,310.375 C 443.34436,310.36388 443.34375,310.32937 443.34375,310.3125 C 443.34377,310.31252 443.34376,310.21875 443.34375,310.21875 C 443.38992,310.12646 443.46214,310.03936 443.5,309.96875 C 443.49972,309.96551 443.50009,309.94026 443.5,309.9375 C 443.50651,309.91819 443.52465,309.86945 443.53125,309.84375 C 443.53111,309.83722 443.531,309.81508 443.53125,309.8125 C 443.53119,309.80604 443.53116,309.78398 443.53125,309.78125 C 443.54252,309.78127 443.55389,309.78143 443.5625,309.78125 C 443.56437,309.78116 443.5868,309.78118 443.59375,309.78125 C 443.59962,309.77576 443.6195,309.75586 443.625,309.75 C 443.62494,309.74306 443.6249,309.72061 443.625,309.71875 C 443.6252,309.71016 443.625,309.69875 443.625,309.6875 C 443.62502,309.68752 443.625,309.59376 443.625,309.59375 C 443.62625,309.5936 443.64904,309.59365 443.65625,309.59375 C 443.66485,309.58562 443.68351,309.56612 443.6875,309.5625 C 443.69333,309.55682 443.71301,309.53693 443.71875,309.53125 C 443.71872,309.52457 443.71881,309.50349 443.71875,309.5 C 443.71877,309.50002 443.71874,309.49628 443.71875,309.40625 C 443.72244,309.40634 443.7471,309.40625 443.75,309.40625 C 443.75693,309.39915 443.77936,309.3766 443.78125,309.375 C 443.78656,309.36958 443.80687,309.34938 443.8125,309.34375 C 443.81252,309.25376 443.8125,309.25001 443.8125,309.25 C 443.81252,309.25002 443.90623,309.15625 443.90625,309.15625 C 443.90618,309.14994 443.90592,309.12815 443.90625,309.125 C 443.90633,309.12165 443.90645,309.09768 443.90625,309.09375 C 443.90592,309.0893 443.90647,309.06691 443.90625,309.0625 C 443.90627,309.06042 443.90631,309.03808 443.90625,309.03125 C 443.91924,309.00223 443.95578,308.93528 443.96875,308.90625 C 443.96869,308.89942 443.96873,308.87708 443.96875,308.875 C 443.96882,308.8683 443.96892,308.84598 443.96875,308.84375 C 443.96856,308.83983 443.96868,308.81586 443.96875,308.8125 C 443.96872,308.80587 443.96879,308.78441 443.96875,308.78125 C 444.05878,308.78127 444.06249,308.78124 444.0625,308.78125 C 444.06252,308.69126 444.06249,308.68751 444.0625,308.6875 C 444.06545,308.68479 444.09071,308.65941 444.09375,308.65625 C 444.09927,308.6511 444.11949,308.63051 444.125,308.625 C 444.13074,308.61949 444.15058,308.59933 444.15625,308.59375 C 444.15602,308.59052 444.15634,308.56527 444.15625,308.5625 C 444.15614,308.5593 444.15632,308.53401 444.15625,308.53125 C 444.15627,308.53127 444.24999,308.43749 444.25,308.4375 C 444.34003,308.2575 444.44125,308.05501 444.53125,307.875 C 444.60159,307.73437 444.66801,307.53968 444.78125,307.375 C 444.78403,307.37227 444.80919,307.34685 444.8125,307.34375 C 444.81785,307.33304 444.83834,307.29247 444.84375,307.28125 C 444.84659,307.27841 444.87143,307.25344 444.875,307.25 C 446.58526,304.18961 448.85601,301.13921 450.65625,297.71875 C 449.48612,293.48819 453.25209,291.40894 456.3125,289.96875 C 458.56282,288.97861 460.37604,287.46023 461.90625,285.75 C 466.04683,281.06937 468.45049,274.66433 474.03125,270.34375 C 475.65145,268.72353 477.38726,267.12022 479.1875,265.5 C 491.33911,254.15847 504.93551,243.06567 510.15625,228.84375 C 513.75669,216.42208 520.30235,208.51676 521.5625,195.375 C 518.99227,193.1827 522.0088,190.72989 520.75,188.9375 C 520.67149,188.8295 520.54986,188.69678 520.4375,188.59375 C 520.20724,188.3885 519.8931,188.18284 519.5,188 C 514.99945,187.82 512.65687,191.84988 508.15625,192.75 C 497.98488,192.56996 484.65267,199.14877 474.03125,198.96875 C 473.85118,196.80844 471.07403,195.56894 469.09375,194.21875 C 467.02349,192.86854 465.77961,191.3291 468.75,188.71875 C 468.56999,187.4586 467.55263,186.36887 466.5625,185.46875 L 466.5,185.46875 L 466.03125,185.46875 L 465.9375,185.46875 L 466.21875,185.375 L 466.5,185.46875 C 465.5999,184.47864 464.58254,183.67763 464.3125,182.6875 C 459.09182,181.15731 458.29069,175.30907 453.25,172.96875 C 449.64954,171.79861 445.88174,168.72652 442.28125,166.65625 C 439.67092,161.7956 438.48295,154.68946 435.0625,149.46875 C 433.4423,147.03842 431.27915,144.95141 428.21875,143.78125 C 428.21033,143.76438 428.19524,143.73387 428.1875,143.71875 C 428.11439,143.59476 428.04189,143.49002 427.96875,143.34375 C 425.80847,138.21306 424.09033,130.19453 421.75,124.34375 C 421.66001,124.16373 421.55876,123.89877 421.46875,123.71875 C 419.03844,118.67807 409.96606,116.24208 411.40625,110.03125 C 411.89571,108.48135 411.11692,107.30143 410.96875,107.09375 C 410.9655,107.09037 410.94096,107.0658 410.9375,107.0625 C 406.43692,99.951537 400.06414,93.380996 397.09375,86 C 397.18378,84.919861 396.98505,83.931372 396.625,83.03125 C 396.26498,82.941242 395.91882,82.578791 395.46875,82.21875 C 393.57851,80.418508 391.40625,76.562497 391.40625,76.5625 C 389.69604,75.032302 387.99388,73.414032 387.09375,71.34375 C 386.91373,69.993571 387.82237,68.625002 388.8125,68.625 C 389.0488,68.684072 389.25331,68.80671 389.4375,68.96875 C 389.52465,69.048853 389.63437,69.168734 389.71875,69.28125 C 390.16883,70.451409 391.15489,71.708582 391.875,72.96875 C 391.87502,72.968752 395.56595,79.878429 397.90625,82.21875 C 398.08629,82.398778 398.25749,82.601221 398.4375,82.78125 C 398.46565,82.803757 398.5031,82.826104 398.53125,82.84375 C 398.54751,82.852047 398.58317,82.869716 398.59375,82.875 C 398.60459,82.880639 398.64541,82.900903 398.65625,82.90625 C 398.66709,82.906133 398.70791,82.906652 398.71875,82.90625 C 398.72959,82.912094 398.77042,82.931935 398.78125,82.9375 C 398.80266,82.939584 398.85349,82.937846 398.875,82.9375 C 398.87827,82.937622 398.90346,82.937495 398.90625,82.9375 C 398.91722,82.934564 398.95055,82.912639 398.96875,82.90625 C 398.97676,82.90352 398.99501,82.90763 399,82.90625 C 399.00615,82.904622 399.02352,82.908593 399.03125,82.90625 C 399.04808,82.900678 399.07962,82.880707 399.09375,82.875 C 399.13184,82.858365 399.1851,82.831017 399.21875,82.8125 C 399.42133,82.695124 399.64715,82.484566 399.875,82.21875 C 400.41509,81.498658 400.95621,80.322668 401.40625,79.0625 C 401.22625,77.982364 401.84375,75.031251 401.84375,75.03125 C 401.84177,75.024328 401.84544,75.007407 401.84375,75 C 401.83505,74.953378 401.81989,74.888231 401.8125,74.84375 C 401.749,74.414733 401.83778,73.875022 402.0625,73.46875 C 402.12162,73.366109 402.20461,73.241267 402.28125,73.15625 C 402.28837,73.148696 402.30525,73.132376 402.3125,73.125 C 402.31516,73.122941 402.33524,73.102268 402.34375,73.09375 C 402.35496,73.088383 402.39552,73.067896 402.40625,73.0625 L 402.40625,72.59375 L 401.9375,71.34375 C 400.3173,68.553378 397.43377,62.955451 397.34375,59.625 C 395.72355,60.795157 393.92149,61.532599 392.03125,60.8125 C 391.82184,60.751215 390.39199,60.358113 389.59375,60.65625 C 389.58844,60.658364 389.57036,60.65367 389.5625,60.65625 C 389.5448,60.661813 389.51233,60.682728 389.5,60.6875 C 389.48871,60.69325 389.45358,60.71059 389.4375,60.71875 C 389.40219,60.742431 389.33971,60.789899 389.3125,60.8125 C 389.30617,60.818955 389.28418,60.840989 389.28125,60.84375 C 389.27561,60.849452 389.25547,60.869114 389.25,60.875 C 389.22697,60.901561 389.17961,60.964644 389.15625,61 C 386.63592,62.260173 384.12156,59.982661 381.78125,58.8125 C 381.78125,58.812498 380.19658,58.41113 379.53125,58.65625 C 379.5281,58.655934 379.50273,58.656321 379.5,58.65625 C 379.49448,58.661919 379.47423,58.681798 379.46875,58.6875 C 379.45778,58.692614 379.41678,58.713334 379.40625,58.71875 C 379.40205,58.722964 379.38134,58.743582 379.375,58.75 C 379.36648,58.757566 379.35141,58.773106 379.34375,58.78125 C 379.3382,58.786487 379.31782,58.807112 379.3125,58.8125 C 379.30679,58.818042 379.28691,58.838168 379.28125,58.84375 C 379.28154,58.847023 379.28116,58.872219 379.28125,58.875 C 379.27792,58.878426 379.25282,58.903438 379.25,58.90625 C 376.00957,60.706496 372.34542,62.333579 369.375,63.59375 C 360.37379,61.883521 354.05117,57.475918 345.5,59.90625 C 344.95993,59.366171 344.34884,58.825058 343.71875,58.375 L 343.8125,58.375 C 338.95184,54.954535 332.82805,55.499258 328.6875,51.71875 C 328.41746,51.448707 328.14504,51.172548 327.875,50.8125 C 324.54455,49.642339 321.91537,50.188542 319.125,51.71875 C 317.59479,52.618864 315.98776,53.774819 314.1875,55.125 C 310.85705,59.175545 317.43601,63.691981 309.875,67.5625 C 306.00448,68.552639 304.18543,63.430024 301.125,63.25 C 296.17431,60.63965 285.91507,63.426158 285.375,54.875 C 283.66475,53.254785 281.79276,52.258823 279.8125,51.71875 C 274.86182,50.278553 269.36813,51.187803 264.6875,48.9375 C 264.07118,47.880979 263.01555,47.25103 261.875,46.71875 L 261.875,46.6875 C 258.81457,45.247308 254.86751,44.683021 254.6875,40.8125 C 259.27812,38.562199 262.60184,32.625607 258.28125,28.125 C 258.46125,27.044853 259.27615,26.150121 259.90625,25.25 C 260.27173,24.762667 260.48218,24.362959 260.5625,24.0625 C 260.57024,24.03117 260.58672,23.971039 260.59375,23.9375 C 260.59543,23.908181 260.59385,23.840507 260.59375,23.8125 C 260.59409,23.797554 260.59416,23.764381 260.59375,23.75 C 260.59391,23.739076 260.59377,23.698286 260.59375,23.6875 C 260.58808,23.664948 260.5697,23.615096 260.5625,23.59375 C 260.56257,23.590997 260.56227,23.565668 260.5625,23.5625 C 260.557,23.551415 260.5369,23.510957 260.53125,23.5 C 260.53134,23.497227 260.53092,23.471998 260.53125,23.46875 C 260.52559,23.463189 260.50569,23.44303 260.5,23.4375 C 260.49309,23.430687 260.4707,23.408306 260.46875,23.40625 C 260.44745,23.385151 260.42203,23.358926 260.40625,23.34375 C 260.37739,23.318274 260.31811,23.273906 260.28125,23.25 C 259.6833,22.921892 258.46876,23.187501 258.46875,23.1875 C 257.74863,23.09749 257.10256,23.01256 256.5625,22.5625 C 255.04194,21.485455 253.93937,19.790183 252.3125,19.90625 C 252.30594,19.906718 252.28775,19.905332 252.28125,19.90625 C 252.27479,19.907507 252.25644,19.904766 252.25,19.90625 z M 95.625,45.21875 C 94.904906,45.668812 93.819975,46.41238 94,47.3125 C 94.002892,47.315153 94.02489,47.33726 94.03125,47.34375 C 94.045744,47.459728 94.079417,47.590835 94.125,47.6875 C 94.13234,47.70214 94.148274,47.735839 94.15625,47.75 C 94.161497,47.760926 94.182102,47.801697 94.1875,47.8125 C 94.219629,47.858695 94.273789,47.928578 94.3125,47.96875 C 94.318153,47.97436 94.337977,47.994512 94.34375,48 C 94.685339,48.310995 95.24253,48.414321 95.6875,48.25 C 95.756051,48.223089 95.843368,48.164791 95.90625,48.125 C 95.917163,48.119813 95.957928,48.099097 95.96875,48.09375 C 96.041695,48.037967 96.127967,47.950899 96.1875,47.875 C 96.219205,47.83258 96.254535,47.767328 96.28125,47.71875 C 96.302771,47.677408 96.326169,47.608209 96.34375,47.5625 C 96.785198,47.519783 97.138677,47.430049 97.375,47.3125 C 97.422456,47.287503 97.492691,47.246131 97.53125,47.21875 C 97.536705,47.213252 97.557134,47.19302 97.5625,47.1875 C 97.56864,47.182176 97.585932,47.163862 97.59375,47.15625 C 97.610722,47.138954 97.642669,47.107669 97.65625,47.09375 C 97.658749,47.091056 97.68086,47.069006 97.6875,47.0625 C 97.703483,47.04016 97.737636,46.991892 97.75,46.96875 C 97.759962,46.943893 97.774488,46.896046 97.78125,46.875 C 97.788955,46.84671 97.806658,46.784091 97.8125,46.75 C 97.812746,46.744776 97.812566,46.724179 97.8125,46.71875 C 97.812621,46.712358 97.812808,46.690379 97.8125,46.6875 C 97.81262,46.684335 97.812483,46.659001 97.8125,46.65625 C 97.799926,46.595655 97.768064,46.522746 97.75,46.46875 C 97.748004,46.463346 97.752466,46.445094 97.75,46.4375 C 97.744526,46.420297 97.724113,46.389133 97.71875,46.375 C 97.716665,46.36978 97.72139,46.349324 97.71875,46.34375 C 97.713069,46.332757 97.691856,46.32059 97.6875,46.3125 C 97.598896,46.157444 97.44584,45.982706 97.28125,45.84375 C 96.861131,45.500178 96.226253,45.21875 95.625,45.21875 z M 91.3125,65.21875 C 90.682423,65.668811 89.53871,66.291117 89.71875,67.28125 C 89.718869,67.312786 89.718436,67.373525 89.71875,67.40625 C 89.718874,67.407762 89.718829,67.430424 89.71875,67.4375 C 89.726363,67.471396 89.73942,67.530433 89.75,67.5625 C 89.777776,67.63078 89.838766,67.723526 89.875,67.78125 C 89.874832,67.78284 89.874949,67.805434 89.875,67.8125 C 89.877893,67.815381 89.902507,67.840154 89.90625,67.84375 C 89.909538,67.84687 89.930823,67.868357 89.9375,67.875 C 89.978409,67.921041 90.050945,67.995493 90.09375,68.03125 C 90.460873,68.32511 91.03021,68.391767 91.46875,68.1875 C 91.483483,68.180262 91.5168,68.164128 91.53125,68.15625 C 91.534438,68.152686 91.559712,68.127858 91.5625,68.125 C 91.56541,68.125047 91.590399,68.124693 91.59375,68.125 C 91.628263,68.10209 91.68657,68.058244 91.71875,68.03125 C 91.725083,68.02569 91.74377,68.00573 91.75,68 C 91.774483,67.976426 91.82111,67.932501 91.84375,67.90625 C 91.899133,67.838942 91.95848,67.740677 92,67.65625 C 91.999818,67.652773 92.000051,67.627848 92,67.625 C 91.999677,67.622109 92.000091,67.596459 92,67.59375 C 92.00284,67.590979 92.024862,67.568964 92.03125,67.5625 C 92.584428,67.508969 92.9855,67.354089 93.21875,67.1875 C 93.229755,67.182413 93.270634,67.161408 93.28125,67.15625 C 93.296103,67.14239 93.3306,67.108047 93.34375,67.09375 C 93.380673,67.050238 93.41513,66.984272 93.4375,66.9375 C 93.437389,66.933941 93.437534,66.909105 93.4375,66.90625 C 93.444184,66.88462 93.462632,66.835331 93.46875,66.8125 C 93.468687,66.809731 93.46893,66.784373 93.46875,66.78125 C 93.474689,66.77025 93.494482,66.729496 93.5,66.71875 C 93.500075,66.712351 93.500316,66.690529 93.5,66.6875 C 93.492548,66.653152 93.47495,66.589343 93.46875,66.5625 C 93.462294,66.542615 93.443692,66.492458 93.4375,66.46875 C 93.437827,66.457643 93.437444,66.416942 93.4375,66.40625 C 93.433942,66.403065 93.409145,66.377795 93.40625,66.375 C 93.389555,66.343015 93.358501,66.277642 93.34375,66.25 C 93.005043,65.718407 92.14089,65.21875 91.3125,65.21875 z M 107.84375,65.625 C 107.84401,65.628512 107.84368,65.653407 107.84375,65.65625 C 107.84195,65.656059 107.8195,65.656188 107.8125,65.65625 C 107.81256,65.65915 107.81231,65.683752 107.8125,65.6875 C 107.81885,65.687439 107.8406,65.687287 107.84375,65.6875 C 107.84491,65.687444 107.86768,65.687438 107.875,65.6875 C 107.88027,65.687526 107.90031,65.687212 107.90625,65.6875 C 107.90869,65.687436 107.93551,65.687741 107.9375,65.6875 C 107.97014,65.686015 108.02558,65.6875 108.0625,65.6875 C 108.0625,65.685742 108.06244,65.663229 108.0625,65.65625 C 108.06258,65.65337 108.0623,65.628622 108.0625,65.625 C 108.05967,65.625028 108.03485,65.624802 108.03125,65.625 C 108.03038,65.624814 108.00279,65.625002 108,65.625 C 107.99767,65.625115 107.97535,65.625097 107.96875,65.625 C 107.9674,65.625214 107.94023,65.625051 107.9375,65.625 C 107.93015,65.624942 107.90735,65.624952 107.90625,65.625 C 107.90315,65.624779 107.88134,65.62494 107.875,65.625 C 107.87211,65.62496 107.84748,65.625108 107.84375,65.625 z M 107.75,65.6875 C 107.75023,65.688378 107.7501,65.711366 107.75,65.71875 C 107.75299,65.718668 107.77758,65.718532 107.78125,65.71875 C 107.78093,65.715233 107.78132,65.690366 107.78125,65.6875 C 107.77973,65.687315 107.75709,65.687444 107.75,65.6875 z M 107.65625,65.78125 C 106.93849,66.147607 105.554,67.205682 105.40625,68.125 C 105.40571,68.13571 105.4058,68.174278 105.40625,68.1875 C 105.40634,68.191526 105.40628,68.215197 105.40625,68.21875 C 105.40608,68.222596 105.40619,68.244108 105.40625,68.25 C 105.40639,68.26241 105.40613,68.296468 105.40625,68.3125 C 105.41252,68.346423 105.43107,68.408565 105.4375,68.4375 C 105.44483,68.466377 105.45828,68.528848 105.46875,68.5625 C 105.53304,68.716591 105.64915,68.872952 105.8125,69 L 107.53125,68.5625 C 107.72271,68.455284 107.8798,68.332507 108,68.21875 C 108.00685,68.212045 108.02428,68.194915 108.03125,68.1875 C 108.07326,68.139959 108.12539,68.07201 108.15625,68.03125 C 108.19053,67.984074 108.22387,67.922566 108.25,67.875 C 108.27893,67.819475 108.32535,67.742886 108.34375,67.6875 C 108.34587,67.680586 108.34192,67.663775 108.34375,67.65625 C 108.35328,67.608502 108.36974,67.540847 108.375,67.5 C 108.37544,67.489291 108.37529,67.45074 108.375,67.4375 C 108.37484,67.42945 108.37483,67.412003 108.375,67.40625 C 108.37505,67.394792 108.37482,67.361499 108.375,67.34375 C 108.37492,67.335692 108.3754,67.318149 108.375,67.3125 C 108.37504,67.309801 108.3749,67.284222 108.375,67.28125 C 108.29854,66.759935 107.87474,66.261664 107.75,65.96875 C 107.74324,65.962088 107.7224,65.940728 107.71875,65.9375 C 107.71878,65.934723 107.71855,65.909512 107.71875,65.90625 C 107.71876,65.903464 107.71862,65.878298 107.71875,65.875 C 107.71844,65.872675 107.71863,65.850418 107.71875,65.84375 C 107.7189,65.841649 107.71886,65.81928 107.71875,65.8125 C 107.71869,65.80968 107.71889,65.78468 107.71875,65.78125 C 107.71613,65.781084 107.69024,65.781714 107.6875,65.78125 C 107.68473,65.780813 107.65893,65.781361 107.65625,65.78125 z M 98.875,67.125 C 98.154898,67.575061 97.00746,68.287384 97.1875,69.1875 C 97.18757,69.193954 97.1877,69.215972 97.1875,69.21875 C 97.187476,69.221386 97.187326,69.247536 97.1875,69.25 C 97.205385,69.329295 97.24912,69.42987 97.28125,69.5 C 97.287429,69.520379 97.305345,69.576341 97.3125,69.59375 C 97.336357,69.629051 97.384148,69.689787 97.40625,69.71875 C 97.409502,69.721852 97.430832,69.743362 97.4375,69.75 C 97.461202,69.776068 97.505358,69.819874 97.53125,69.84375 C 97.828282,70.106134 98.274322,70.230349 98.65625,70.1875 C 98.675814,70.187002 98.72753,70.186491 98.75,70.1875 C 98.752656,70.187504 98.774703,70.187455 98.78125,70.1875 C 98.805758,70.181683 98.851124,70.163572 98.875,70.15625 C 98.898646,70.148426 98.945869,70.134349 98.96875,70.125 C 98.985072,70.116933 99.020833,70.098826 99.03125,70.09375 C 99.033964,70.090439 99.059532,70.065433 99.0625,70.0625 C 99.065423,70.062523 99.090391,70.062209 99.09375,70.0625 C 99.096928,70.058939 99.122208,70.034109 99.125,70.03125 C 99.127936,70.031292 99.152883,70.030946 99.15625,70.03125 C 99.156067,70.029488 99.156196,70.007013 99.15625,70 C 99.159188,69.99996 99.183861,69.999753 99.1875,70 C 99.190455,69.996873 99.216034,69.971538 99.21875,69.96875 C 99.255065,69.935676 99.305457,69.884183 99.34375,69.84375 C 99.349562,69.83728 99.369937,69.818565 99.375,69.8125 C 99.380528,69.807264 99.400979,69.786484 99.40625,69.78125 C 99.405944,69.777894 99.406296,69.752916 99.40625,69.75 C 99.409124,69.74706 99.434206,69.721452 99.4375,69.71875 C 99.437177,69.715496 99.437584,69.69032 99.4375,69.6875 C 99.453725,69.652014 99.485155,69.594704 99.5,69.5625 C 99.507007,69.555397 99.529474,69.532727 99.53125,69.53125 C 99.960438,69.475874 100.29948,69.372907 100.53125,69.25 C 100.57791,69.22395 100.64888,69.184349 100.6875,69.15625 C 100.69491,69.150555 100.71166,69.130768 100.71875,69.125 C 100.72598,69.118754 100.74309,69.100089 100.75,69.09375 C 100.75419,69.089088 100.7771,69.067571 100.78125,69.0625 C 100.80166,69.035704 100.82723,68.993769 100.84375,68.96875 C 100.84923,68.957907 100.86975,68.917141 100.875,68.90625 C 100.882,68.892537 100.90021,68.857299 100.90625,68.84375 C 100.91196,68.833084 100.93238,68.791593 100.9375,68.78125 C 100.94547,68.75185 100.96279,68.690667 100.96875,68.65625 C 100.97066,68.622222 100.97003,68.54941 100.96875,68.5 C 100.96855,68.496236 100.96862,68.474809 100.96875,68.46875 C 100.96892,68.465509 100.96876,68.440325 100.96875,68.4375 C 100.96517,68.43444 100.94037,68.408997 100.9375,68.40625 C 100.93311,68.394295 100.91009,68.356598 100.90625,68.34375 C 100.90505,68.339975 100.90742,68.31581 100.90625,68.3125 C 100.88717,68.266045 100.84172,68.176542 100.8125,68.125 C 100.75716,68.03792 100.67237,67.925748 100.59375,67.84375 C 100.19027,67.43729 99.5079,67.125 98.875,67.125 z M 20.5625,145.40625 L 20.5625,146.125 L 22.71875,145.6875 L 20.5625,145.40625 z M 23,147.65625 L 21.90625,147.75 L 23,147.65625 z M 34.59375,148.5625 L 34.6875,150.09375 L 34.59375,148.5625 z M 25.5,149.09375 L 27.6875,149.46875 L 25.5,149.09375 z M 34.25,154.3125 L 34.0625,154.59375 L 34.34375,154.5 L 34.25,154.3125 z M 28.5,159.28125 L 27.9375,161.4375 L 28.5,159.28125 z M 24.4375,161.09375 L 23.4375,161.15625 L 24.4375,161.09375 z M 21.90625,161.8125 L 22,161.875 L 21.90625,161.8125 z M 236.28125,250.28125 C 235.0102,250.58241 232.82853,252.6274 235.15625,253.625 C 236.41642,253.35496 239.11408,251.27138 236.59375,250.28125 C 236.58689,250.28125 236.56982,250.28149 236.5625,250.28125 C 236.55674,250.28097 236.53921,250.28128 236.53125,250.28125 C 236.51374,250.28143 236.48096,250.28139 236.46875,250.28125 C 236.45791,250.28092 236.41688,250.2811 236.40625,250.28125 C 236.39583,250.28092 236.3543,250.28135 236.34375,250.28125 C 236.32406,250.28515 236.30143,250.27647 236.28125,250.28125 z M 221.71875,271.625 C 221.71592,271.62841 221.69016,271.65343 221.6875,271.65625 C 221.57736,271.71366 221.45991,271.79789 221.375,271.875 C 221.36136,271.88795 221.32554,271.92398 221.3125,271.9375 C 221.30149,271.94827 221.26087,271.98909 221.25,272 C 221.23245,272.02433 221.20194,272.07362 221.1875,272.09375 C 221.17143,272.11711 221.13979,272.16314 221.125,272.1875 C 220.67492,272.9609 220.85368,274.21298 221.40625,274.6875 C 221.40899,274.69029 221.43434,274.71544 221.4375,274.71875 C 221.47947,274.74909 221.54795,274.79101 221.59375,274.8125 C 221.6168,274.82141 221.66342,274.83691 221.6875,274.84375 C 221.71599,274.85089 221.77798,274.86854 221.8125,274.875 C 222.00301,274.89117 222.24249,274.83835 222.46875,274.6875 C 222.47411,274.68296 222.49487,274.66197 222.5,274.65625 C 222.50763,274.64738 222.52341,274.63236 222.53125,274.625 C 222.61064,274.56241 222.71747,274.4758 222.78125,274.40625 C 222.79494,274.38665 222.8265,274.33632 222.84375,274.3125 C 222.85672,274.29889 222.89365,274.2625 222.90625,274.25 C 222.97243,274.1416 223.02587,273.99605 223.0625,273.875 C 223.22248,273.30646 223.0735,272.61389 222.75,272.15625 C 222.71687,272.11105 222.66606,272.04633 222.625,272 C 222.60873,271.98345 222.57404,271.94874 222.5625,271.9375 C 222.55903,271.93426 222.53665,271.91176 222.53125,271.90625 C 222.5252,271.90001 222.50544,271.88042 222.5,271.875 C 222.48375,271.86161 222.4307,271.82817 222.40625,271.8125 C 222.32097,271.7541 222.19142,271.68883 222.09375,271.65625 C 222.0508,271.64461 221.98205,271.63035 221.9375,271.625 C 221.93152,271.62509 221.91021,271.62506 221.90625,271.625 C 221.88961,271.6253 221.85747,271.625 221.84375,271.625 C 221.84086,271.62506 221.81604,271.62506 221.8125,271.625 C 221.80536,271.62506 221.78261,271.62519 221.78125,271.625 C 221.7741,271.62505 221.75131,271.62505 221.75,271.625 C 221.74718,271.62454 221.7214,271.6251 221.71875,271.625 z M 552.71875,304.8125 L 552.625,305 L 552.8125,304.90625 L 552.71875,304.8125 z M 446.3125,314.375 C 444.78231,315.81522 444.78093,318.06489 447.03125,318.875 C 448.29144,317.61485 447.39263,315.9052 446.3125,314.375 z M 557.3125,323.375 L 557.125,323.625 L 557.3125,323.375 z M 519.40625,338.46875 C 519.39587,338.47177 519.38595,338.49668 519.375,338.5 C 519.36406,338.50306 519.32279,338.49824 519.3125,338.5 C 519.20425,338.76302 519.16602,338.98246 519.15625,339.15625 C 519.15549,339.17946 519.15549,339.22832 519.15625,339.25 C 519.15612,339.26095 519.15624,339.30173 519.15625,339.3125 C 519.15623,339.31525 519.15638,339.34066 519.15625,339.34375 C 519.16331,339.36968 519.18104,339.4178 519.1875,339.4375 C 519.18745,339.44028 519.18776,339.46552 519.1875,339.46875 C 519.19037,339.47154 519.21514,339.49673 519.21875,339.5 C 519.21868,339.5028 519.21908,339.52794 519.21875,339.53125 C 519.2216,339.53406 519.24646,339.55916 519.25,339.5625 C 519.25164,339.56459 519.27426,339.58696 519.28125,339.59375 C 519.28822,339.60151 519.3051,339.61781 519.3125,339.625 C 519.31858,339.63115 519.33968,339.65222 519.34375,339.65625 C 519.34845,339.65924 519.36993,339.68463 519.375,339.6875 C 519.40168,339.70123 519.44349,339.70849 519.46875,339.71875 C 519.47473,339.72088 519.49389,339.71678 519.5,339.71875 C 519.50624,339.72055 519.52489,339.74836 519.53125,339.75 C 519.91976,339.83913 520.52843,339.63571 520.90625,339.375 C 520.94044,339.35055 521.00098,339.30663 521.03125,339.28125 C 521.06047,339.2557 521.10048,339.21355 521.125,339.1875 C 521.12937,339.18261 521.14806,339.16443 521.15625,339.15625 C 521.18969,339.11317 521.22602,339.04902 521.25,339 C 521.25583,338.98915 521.2761,338.94812 521.28125,338.9375 C 521.28124,338.93471 521.28137,338.90955 521.28125,338.90625 C 521.28125,338.90246 521.28146,338.87878 521.28125,338.875 C 521.27742,338.87157 521.25293,338.84656 521.25,338.84375 C 521.25015,338.84031 521.24998,338.81531 521.25,338.8125 C 521.25022,338.80905 521.24996,338.78407 521.25,338.78125 C 521.24452,338.77582 521.22445,338.75541 521.21875,338.75 C 521.21068,338.74181 521.19217,338.72366 521.1875,338.71875 C 521.18256,338.71392 521.16454,338.69566 521.15625,338.6875 C 521.15105,338.68201 521.13045,338.66171 521.125,338.65625 C 520.90283,338.51519 520.39496,338.42292 519.53125,338.46875 C 519.52752,338.46873 519.50398,338.4689 519.5,338.46875 C 519.48746,338.46817 519.44864,338.4679 519.4375,338.46875 C 519.4326,338.46999 519.41144,338.46724 519.40625,338.46875 z M 490.03125,339.8125 C 489.99946,339.81829 489.93754,339.83846 489.90625,339.84375 C 489.89873,339.84474 489.88212,339.84322 489.875,339.84375 C 489.76176,340.11873 489.72613,340.35348 489.71875,340.53125 C 489.71844,340.54639 489.71836,340.5793 489.71875,340.59375 C 489.71859,340.6047 489.71873,340.64548 489.71875,340.65625 C 489.71853,340.66726 489.7188,340.70791 489.71875,340.71875 C 489.72414,340.72956 489.74426,340.77081 489.75,340.78125 C 489.74992,340.78403 489.75025,340.80927 489.75,340.8125 C 489.75284,340.81529 489.77763,340.84048 489.78125,340.84375 C 489.78115,340.84655 489.78157,340.87169 489.78125,340.875 C 489.78407,340.87781 489.80894,340.90291 489.8125,340.90625 C 489.81256,340.91329 489.81269,340.93581 489.8125,340.9375 C 489.82056,340.94568 489.83852,340.96315 489.84375,340.96875 C 489.85462,340.97414 489.89511,340.99493 489.90625,341 C 489.91655,341.00712 489.9578,341.02494 489.96875,341.03125 C 489.97438,341.03421 489.99422,341.05974 490,341.0625 C 490.00593,341.06507 490.02518,341.06012 490.03125,341.0625 C 490.04367,341.06689 490.0808,341.0901 490.09375,341.09375 C 490.10035,341.09539 490.11828,341.09228 490.125,341.09375 C 490.13867,341.09633 490.17339,341.09185 490.1875,341.09375 C 490.53113,341.13124 491.00611,340.98973 491.34375,340.78125 C 491.41232,340.73729 491.5064,340.67281 491.5625,340.625 C 491.57893,340.60875 491.61439,340.57295 491.625,340.5625 C 491.63509,340.55201 491.67138,340.51628 491.6875,340.5 C 491.69315,340.49295 491.71309,340.47666 491.71875,340.46875 C 491.72953,340.45236 491.74191,340.42033 491.75,340.40625 C 491.75565,340.39557 491.77572,340.35501 491.78125,340.34375 C 491.78122,340.34091 491.7815,340.31554 491.78125,340.3125 C 491.78145,340.30172 491.7817,340.26071 491.78125,340.25 C 491.78122,340.24621 491.78143,340.22253 491.78125,340.21875 C 491.78132,340.21532 491.78124,340.19031 491.78125,340.1875 C 491.78139,340.18406 491.78122,340.15907 491.78125,340.15625 C 491.7757,340.15082 491.75573,340.1304 491.75,340.125 C 491.75028,340.12153 491.74994,340.09657 491.75,340.09375 C 491.74188,340.08556 491.72329,340.06741 491.71875,340.0625 C 491.71182,340.05549 491.68933,340.03282 491.6875,340.03125 C 491.68225,340.02576 491.66171,340.00546 491.65625,340 C 491.44832,339.86482 491.00147,339.77863 490.21875,339.8125 C 490.21237,339.81278 490.19377,339.81251 490.1875,339.8125 C 490.16263,339.81174 490.12059,339.81227 490.09375,339.8125 C 490.08674,339.81287 490.06987,339.81172 490.0625,339.8125 C 490.05513,339.81328 490.03896,339.81133 490.03125,339.8125 z M 498.65625,341.59375 C 498.55749,341.61025 498.45055,341.64636 498.34375,341.65625 C 498.22067,341.95514 498.18688,342.19165 498.1875,342.375 C 498.18777,342.38577 498.18744,342.42136 498.1875,342.4375 C 498.1873,342.4485 498.18752,342.48918 498.1875,342.5 C 498.18744,342.50276 498.18765,342.52811 498.1875,342.53125 C 498.19286,342.5421 498.21304,342.58326 498.21875,342.59375 C 498.21866,342.59654 498.21902,342.62174 498.21875,342.625 C 498.22159,342.6278 498.24639,342.65295 498.25,342.65625 C 498.2499,342.65906 498.25033,342.68417 498.25,342.6875 C 498.25282,342.69032 498.27771,342.71538 498.28125,342.71875 C 498.28286,342.72073 498.30551,342.74315 498.3125,342.75 C 498.31608,342.75352 498.34003,342.77789 498.34375,342.78125 C 498.3457,342.78281 498.36818,342.80545 498.375,342.8125 C 498.39081,342.82077 498.42491,342.8377 498.4375,342.84375 C 498.44363,342.8463 498.46246,342.8414 498.46875,342.84375 C 498.4752,342.8459 498.4934,342.87305 498.5,342.875 C 498.5135,342.87852 498.54844,342.87223 498.5625,342.875 C 498.58399,342.8786 498.63366,342.90427 498.65625,342.90625 C 499.06129,342.93199 499.63098,342.70152 499.96875,342.4375 C 500.04759,342.37318 500.13858,342.28514 500.1875,342.21875 C 500.19058,342.21373 500.21575,342.19282 500.21875,342.1875 C 500.23316,342.16005 500.24184,342.11621 500.25,342.09375 C 500.24993,342.08689 500.24994,342.06453 500.25,342.0625 C 500.24988,342.05818 500.25024,342.03566 500.25,342.03125 C 500.24975,342.02725 500.25011,342.00352 500.25,342 C 500.25006,341.99313 500.25018,341.97061 500.25,341.96875 C 500.25009,341.96531 500.24999,341.94031 500.25,341.9375 C 500.2444,341.93207 500.22452,341.91165 500.21875,341.90625 C 500.21898,341.90278 500.2187,341.87782 500.21875,341.875 C 500.21156,341.86802 500.18881,341.84539 500.1875,341.84375 C 500.18143,341.83739 500.16313,341.81868 500.15625,341.8125 C 500.15283,341.80897 500.12782,341.78408 500.125,341.78125 C 499.9401,341.65723 499.55204,341.56743 498.875,341.59375 C 498.84983,341.59367 498.80782,341.59349 498.78125,341.59375 C 498.77594,341.59404 498.75529,341.59315 498.75,341.59375 C 498.71823,341.59733 498.68917,341.58825 498.65625,341.59375 z M 557.40625,347.125 L 557.3125,347.40625 L 557.40625,347.125 z M 470.21875,353.4375 C 469.99757,353.52251 469.82005,353.64396 469.6875,353.75 C 469.68136,353.75636 469.65967,353.7782 469.65625,353.78125 C 469.61967,353.81542 469.56235,353.87224 469.53125,353.90625 C 469.50683,353.9362 469.46131,353.99627 469.4375,354.03125 C 469.42935,354.04743 469.41217,354.08272 469.40625,354.09375 C 469.06011,354.7758 469.45946,355.71487 468.8125,356.75 C 468.828,356.79649 468.85296,356.85827 468.875,356.90625 C 469.04383,357.25554 469.39294,357.64149 469.78125,357.875 C 470.00606,358.00504 470.26175,358.0954 470.5,358.09375 C 470.51169,358.09343 470.5449,358.09339 470.5625,358.09375 C 470.56654,358.09373 470.58768,358.09368 470.59375,358.09375 C 470.61517,358.08818 470.66615,358.06902 470.6875,358.0625 C 470.69553,358.06213 470.73307,358.06223 470.75,358.0625 C 470.75405,358.06255 470.7777,358.06283 470.78125,358.0625 C 470.79204,358.05708 470.833,358.03688 470.84375,358.03125 C 470.89709,358.01007 470.97919,357.96902 471.03125,357.9375 C 471.0665,357.91347 471.12459,357.86934 471.15625,357.84375 C 471.183,357.81918 471.22539,357.77461 471.25,357.75 C 471.53695,356.38718 471.87677,355.01541 471.09375,354.0625 C 470.89643,353.83094 470.60161,353.61331 470.25,353.4375 C 470.24874,353.43743 470.22596,353.4374 470.21875,353.4375 z M 508.4375,358.28125 C 506.27719,359.81148 507.53393,362.89847 506.09375,364.96875 C 502.58325,368.38924 500.15759,372.23953 499.4375,375.75 C 493.7667,381.24076 486.91224,384.32102 479.53125,386.03125 C 479.53124,386.03124 475.84375,389.17972 475.84375,391.25 C 475.84373,393.32024 476.55263,395.91986 475.5625,397 C 474.73546,397.75806 473.33531,399.32293 473.125,400.25 C 473.11858,400.28147 473.10143,400.33431 473.09375,400.375 C 473.09268,400.3814 473.09455,400.4004 473.09375,400.40625 C 473.0934,400.40983 473.09363,400.43138 473.09375,400.4375 C 473.0937,400.44342 473.09351,400.46483 473.09375,400.46875 C 473.10018,400.50288 473.11868,400.56683 473.125,400.59375 C 473.12495,400.59652 473.12522,400.62193 473.125,400.625 C 473.13035,400.63595 473.15056,400.67672 473.15625,400.6875 C 473.17119,400.71374 473.20269,400.76135 473.21875,400.78125 C 473.22904,400.79222 473.27016,400.83323 473.28125,400.84375 C 473.28608,400.84915 473.30729,400.8698 473.3125,400.875 C 476.46289,409.60615 472.52573,417.80785 467.125,424.46875 C 466.2249,426.62903 465.4076,428.6872 464.6875,430.9375 C 467.38788,436.24821 464.13261,447.0408 472.59375,450.28125 C 477.54447,453.79167 482.41686,447.51017 487.1875,446.25 C 489.07775,443.72965 490.06862,440.3753 490.96875,438.125 C 492.04883,434.88454 494.48608,431.57671 495.65625,428.15625 C 496.1963,426.71605 497.70995,425.09644 498.25,423.65625 C 500.05024,418.88558 500.95721,414.11065 502.9375,409.25 C 504.37767,405.55948 505.00478,401.85048 506.625,398.25 C 507.07506,397.16983 508.42496,396.11513 508.875,395.125 C 507.79488,390.8944 513.48029,387.27812 511.5,382.6875 C 511.61812,382.49548 511.7469,382.3443 511.875,382.25 C 511.88553,382.2447 511.92691,382.22364 511.9375,382.21875 C 511.94988,382.21174 511.98752,382.19381 512,382.1875 C 512.00275,382.18467 512.02813,382.1598 512.03125,382.15625 C 512.04195,382.15063 512.08302,382.13034 512.09375,382.125 C 512.11794,382.11757 512.1591,382.09821 512.1875,382.09375 C 512.22583,382.08888 512.27931,382.0956 512.3125,382.09375 C 512.34581,382.09285 512.40379,382.09114 512.4375,382.09375 C 512.44279,382.09429 512.46268,382.09283 512.46875,382.09375 C 512.5086,382.10099 512.56161,382.11808 512.59375,382.125 C 513.32412,382.29753 514.15905,383.13359 514.90625,383.25 C 514.91174,383.25073 514.93133,383.24962 514.9375,383.25 C 514.97745,383.25069 515.02996,383.24959 515.0625,383.25 C 515.06791,383.24993 515.0876,383.24987 515.09375,383.25 C 515.10709,383.25048 515.1421,383.24955 515.15625,383.25 C 515.16321,383.25009 515.18087,383.25013 515.1875,383.25 C 515.1936,383.24957 515.21341,383.25082 515.21875,383.25 C 515.25288,383.24374 515.31003,383.22921 515.34375,383.21875 C 515.35444,383.21343 515.39559,383.1931 515.40625,383.1875 C 515.41946,383.18165 515.45564,383.16279 515.46875,383.15625 C 515.47423,383.15061 515.49455,383.13066 515.5,383.125 C 515.51094,383.11972 515.5516,383.0992 515.5625,383.09375 C 515.57344,383.08855 515.6141,383.06788 515.625,383.0625 C 515.63048,383.05696 515.6508,383.03681 515.65625,383.03125 C 515.6672,383.02032 515.70784,382.97987 515.71875,382.96875 C 515.72511,382.96264 515.7437,382.94378 515.75,382.9375 C 516.0266,382.65132 516.29918,382.14823 516.53125,381.34375 C 513.02081,374.05277 516.53935,367.91598 512.21875,360.625 C 511.31869,358.46472 508.4375,358.28125 508.4375,358.28125 z M 477.03125,358.75 C 476.31113,359.56013 477.27751,360.00986 477.1875,361 C 477.19295,361.00545 477.21321,361.02584 477.21875,361.03125 C 477.34936,361.17497 477.57173,361.30793 477.78125,361.375 C 477.95698,361.42655 478.17185,361.45005 478.34375,361.40625 C 478.34925,361.40052 478.36953,361.38077 478.375,361.375 C 478.37775,361.37508 478.40307,361.37474 478.40625,361.375 C 478.45143,361.35564 478.52184,361.31099 478.5625,361.28125 C 478.57071,361.27303 478.58899,361.25415 478.59375,361.25 C 478.59998,361.24414 478.61888,361.22496 478.625,361.21875 C 478.63606,361.20806 478.67658,361.16728 478.6875,361.15625 C 478.70407,361.13367 478.73516,361.08795 478.75,361.0625 C 478.75885,361.04602 478.77306,361.01985 478.78125,361 C 478.79178,360.97286 478.80393,360.93196 478.8125,360.90625 C 478.54244,359.82613 478.38143,358.74999 477.03125,358.75 z M 557.59375,413.65625 C 557.58847,413.65983 557.5677,413.68455 557.5625,413.6875 C 557.55941,413.68732 557.53397,413.68753 557.53125,413.6875 C 557.49802,413.70246 557.43302,413.73639 557.40625,413.75 C 556.14609,414.38006 556.13886,415.46739 554.96875,416.1875 C 555.86894,417.71769 557.50103,417.98266 559.03125,416.8125 C 559.75351,416.25694 559.41795,414.99198 558.78125,414.25 C 558.60987,414.05616 558.39125,413.88013 558.1875,413.78125 C 558.03408,413.71129 557.85357,413.65396 557.6875,413.65625 C 557.67718,413.65663 557.64127,413.6562 557.625,413.65625 C 557.62237,413.65762 557.59639,413.65458 557.59375,413.65625 z M 543.0625,418.71875 C 543.05352,418.72118 543.04006,418.74726 543.03125,418.75 C 542.99617,418.76169 542.94581,418.77136 542.90625,418.78125 C 540.20591,419.77137 542.27112,422.10363 543.53125,423.09375 C 544.79149,422.91371 547.3125,425.17287 547.3125,422.5625 C 546.55939,421.13987 544.95038,418.69235 543.28125,418.71875 C 543.26943,418.71893 543.23484,418.71866 543.21875,418.71875 C 543.21518,418.7188 543.19153,418.71884 543.1875,418.71875 C 543.1743,418.71822 543.13569,418.71819 543.125,418.71875 C 543.10557,418.72168 543.08047,418.71389 543.0625,418.71875 z " transform="matrix(22.06038,0,0,22.06038,-2263.509,0)" id="Africa"/><path style="fill:#bfe3e7;fill-opacity:1;fill-rule:evenodd;stroke:#000000;stroke-width:22.06037736;stroke-miterlimit:4;stroke-dasharray:none;stroke-opacity:1" id="Lake Malawi" d="M 6798.1751,7763.1446 C 6784.2752,7790.9445 6772.361,7788.9587 6762.4326,7826.6871 C 6756.4754,7844.5583 6754.4897,7900.158 6748.5326,7920.015 C 6752.504,7931.9292 6756.4754,7945.8291 6760.4469,7957.7434 C 6786.2609,8033.2 6823.9893,8116.5994 6812.0751,8198.0132 C 6843.8463,8192.056 6883.5603,8225.813 6895.4746,8178.1561 C 6837.8892,8078.8711 6849.8034,8015.3287 6877.6033,7910.0866 C 6879.589,7898.1723 6883.5603,7848.5297 6887.5317,7836.6156 C 6881.5746,7828.6727 6875.6175,7818.7442 6871.6461,7810.8015 C 6859.7319,7792.9302 6851.7891,7743.2876 6837.8892,7727.402 C 6812.0751,7701.5879 6804.1323,7608.2599 6804.1323,7608.2599 C 6816.0464,7576.4887 6822.0036,7534.7889 6760.4469,7534.7889 C 6734.6327,7564.5744 6746.547,7590.3886 6764.4182,7610.2456 C 6764.4182,7610.2456 6800.1608,7723.4306 6796.1895,7753.2161 L 6798.1751,7763.1446 z " class="fil5"/><path style="fill:#bfe3e7;fill-opacity:1;fill-rule:evenodd;stroke:#000000;stroke-width:22.06037736;stroke-miterlimit:4;stroke-dasharray:none;stroke-opacity:1" id="Lake Rudolf" d="M 7101.9875,5606.673 C 7076.1734,5586.816 7052.3449,5568.9447 7044.4022,5533.2021 C 7038.445,5487.5309 7016.6023,5394.203 7080.1447,5364.4174 C 7125.8159,5447.8169 7105.9589,5549.0877 7123.8302,5616.6015 L 7101.9875,5606.673 z " class="fil5"/><path style="fill:#bfe3e7;fill-opacity:1;fill-rule:evenodd;stroke:#000000;stroke-width:22.06037736;stroke-miterlimit:4;stroke-dasharray:none;stroke-opacity:1" id="Lake Victoria" d="M 6827.9607,6103.0984 C 6873.6318,6144.798 6758.4612,6156.7122 6786.2609,6206.3548 C 6822.0036,6311.597 6561.8767,6351.311 6718.7471,6406.9106 C 6710.8043,6452.5818 6659.1761,6458.5388 6621.4477,6428.7533 C 6561.8767,6430.7391 6416.9205,6524.067 6422.8776,6375.1394 C 6478.4773,6273.8686 6395.0778,6188.4835 6490.3915,6075.2985 C 6528.1198,6047.4987 6629.3906,6105.0841 6675.0617,6021.6846 C 6724.7042,6025.6559 6766.4039,6154.7266 6827.9607,6103.0984 z " class="fil5"/><path style="fill:#bfe3e7;fill-opacity:1;fill-rule:evenodd;stroke:#000000;stroke-width:22.06037736;stroke-miterlimit:4;stroke-dasharray:none;stroke-opacity:1" id="Lake Chad" d="M 3893.0942,4093.5686 C 3912.9512,4135.2684 3742.1809,4230.582 3722.3238,4093.5686 C 3722.3238,4085.6259 3720.3381,4075.6973 3718.3525,4067.7546 C 3718.3525,4067.7546 3720.3381,3767.9136 3893.0942,4093.5686 z " class="fil5"/><path style="fill:#bfe3e7;fill-opacity:1;fill-rule:evenodd;stroke:#000000;stroke-width:22.06037736;stroke-miterlimit:4;stroke-dasharray:none;stroke-opacity:1" id="Lake Tanganyika" d="M 6142.8937,6980.7783 C 6267.9929,7080.0634 6226.2932,7248.8479 6317.6354,7366.0043 C 6295.7928,7405.7184 6246.1502,7348.133 6238.2074,7308.419 C 6238.2074,7308.419 6212.3933,7189.2769 6190.5506,7199.2054 C 6162.7508,7171.4056 6130.9796,7139.6344 6105.1654,7113.8203 C 6083.3227,7014.5353 6031.6945,6891.4217 6043.6087,6790.151 C 6045.5944,6778.2368 6039.6372,6740.5084 6041.623,6730.58 C 6047.5801,6714.6944 6063.4657,6738.5227 6073.3942,6724.6228 C 6081.337,6740.5084 6085.3085,6746.4656 6093.2512,6760.3655 C 6128.9938,6835.8221 6158.7793,6907.3073 6142.8937,6980.7783 z " class="fil5"/>
</svg>